#!OML:ASF F:\VICON\USERDATA\INSTALL\rory3\rory3.ASF
:FULLY-SPECIFIED
:DEGREES
46
root 1.135 17.824 -16.0485 5.20555 -3.73929 -0.0748322
lowerback 6.77391 -0.324805 -1.4749
upperback 0.552801 -0.447475 2.88467
thorax -3.1944 -0.18528 3.86127
lowerneck -15.8246 -3.48128 -10.276
upperneck 29.4901 -3.19336 3.7854
head 12.6943 -2.08274 2.71951
rclavicle -2.05742e-014 -1.59028e-014
rhumerus -32.6722 -9.8151 -77.7551
rradius 35.5229
rwrist 2.55674
rhand -12.6443 13.3933
rfingers 7.12502
rthumb 13.4361 -16.1534
lclavicle -2.05742e-014 -1.59028e-014
lhumerus -33.2944 11.8216 84.2353
lradius 29.7572
lwrist -3.95318
lhand -18.5473 25.7965
lfingers 7.12502
lthumb 7.74208 55.6348
rfemur -12.146 4.90668 21.2846
rtibia 21.4406
rfoot -9.41712 -8.53944
rtoes 3.08975
lfemur -13.6785 -3.15469 -21.8756
ltibia 22.4811
lfoot -10.3999 6.35828
ltoes -0.109278
47
root 1.13104 17.8264 -16.0308 5.00907 -3.98344 -0.0246681
lowerback 6.73208 -0.261568 -1.45183
upperback 0.686563 -0.366241 2.80743
thorax -3.03939 -0.149577 3.7579
lowerneck -15.9609 -3.5083 -10.1436
upperneck 29.4993 -3.21594 3.6578
head 12.7236 -2.0935 2.64277
rclavicle -1.39149e-014 -3.57812e-014
rhumerus -32.5069 -9.83481 -77.8898
rradius 35.4881
rwrist 2.64713
rhand -12.9847 13.4197
rfingers 7.12502
rthumb 13.108 -16.1483
lclavicle -1.39149e-014 -3.57812e-014
lhumerus -33.2998 12.0852 84.0574
lradius 30.3385
lwrist -5.51903
lhand -15.4971 29.4481
lfingers 7.12502
lthumb 10.6852 59.1563
rfemur -11.8429 5.02035 21.2499
rtibia 21.3368
rfoot -9.4492 -8.47321
rtoes 2.66855
lfemur -13.3416 -3.13131 -21.9364
ltibia 22.5144
lfoot -10.6275 6.57125
ltoes 0.0388199
48
root 1.12607 17.8242 -16.0241 4.89825 -4.21809 -0.10695
lowerback 6.85571 -0.176087 -1.30767
upperback 0.713068 -0.243018 2.77731
thorax -3.0912 -0.0897772 3.63457
lowerneck -15.933 -3.58907 -10.1857
upperneck 29.4473 -3.32801 3.67357
head 12.7078 -2.14471 2.63748
rclavicle 5.96354e-016 -1.59028e-014
rhumerus -32.5245 -9.80467 -77.9905
rradius 35.5892
rwrist 2.52369
rhand -13.0645 13.8126
rfingers 7.12502
rthumb 13.0311 -15.7604
lclavicle 5.96354e-016 -1.59028e-014
lhumerus -33.4037 12.0554 84.0315
lradius 29.8776
lwrist -3.93609
lhand -18.3677 26.4313
lfingers 7.12502
lthumb 7.91547 56.2631
rfemur -11.6823 5.06954 21.3645
rtibia 21.2501
rfoot -9.46717 -8.3324
rtoes 2.02583
lfemur -13.1761 -3.11718 -21.8487
ltibia 22.5621
lfoot -10.6693 6.80189
ltoes 0.0248366
49
root 1.11767 17.8226 -16.0272 4.91116 -4.36744 -0.172956
lowerback 7.04447 -0.124058 -1.2216
upperback 0.60119 -0.165121 2.77194
thorax -3.31868 -0.0478061 3.57589
lowerneck -15.7931 -3.64074 -10.3394
upperneck 29.3938 -3.41068 3.79238
head 12.6699 -2.18327 2.69687
rclavicle -1.49089e-015 -2.38542e-015
rhumerus -32.6916 -9.75215 -78.0395
rradius 35.7086
rwrist 2.43691
rhand -13.1357 14.1686
rfingers 7.12502
rthumb 12.9623 -15.4087
lclavicle -1.49089e-015 -2.38542e-015
lhumerus -33.5689 12.3404 83.8307
lradius 29.1216
lwrist -2.98517
lhand -20.5308 21.6179
lfingers 7.12502
lthumb 5.82739 51.5178
rfemur -11.6995 5.1056 21.4636
rtibia 21.1773
rfoot -9.44863 -8.25126
rtoes 1.97393
lfemur -13.1951 -3.07424 -21.75
ltibia 22.6002
lfoot -10.6074 6.88865
ltoes 0.281435
50
root 1.10969 17.8232 -16.0279 4.97702 -4.46677 -0.176639
lowerback 7.04559 -0.0985901 -1.2062
upperback 0.531358 -0.129035 2.76433
thorax -3.39429 -0.0283222 3.55635
lowerneck -15.9132 -3.67125 -10.4157
upperneck 29.4992 -3.43239 3.83271
head 12.7432 -2.1976 2.72281
rclavicle 1.88845e-015 3.18055e-015
rhumerus -32.7522 -9.68154 -78.0676
rradius 35.7789
rwrist 2.41621
rhand -13.1846 14.1125
rfingers 7.12502
rthumb 12.9152 -15.4679
lclavicle 1.88845e-015 3.18055e-015
lhumerus -33.6069 12.3725 83.8338
lradius 29.3467
lwrist -3.36046
lhand -19.7884 24.7594
lfingers 7.12502
lthumb 6.54405 54.6383
rfemur -11.759 5.14626 21.4778
rtibia 21.1533
rfoot -9.56219 -8.19618
rtoes 2.46874
lfemur -13.2609 -2.96901 -21.7178
ltibia 22.5953
lfoot -10.5794 6.84269
ltoes 0.450493
51
root 1.10194 17.824 -16.0265 5.01162 -4.52677 -0.105691
lowerback 7.01111 -0.10866 -1.2952
upperback 0.465758 -0.148175 2.7704
thorax -3.4414 -0.035069 3.6153
lowerneck -15.909 -3.65342 -10.5601
upperneck 29.5813 -3.38632 3.89879
head 12.7773 -2.18716 2.78192
rclavicle -9.93923e-015 1.66979e-014
rhumerus -32.7579 -9.55426 -78.0497
rradius 35.7233
rwrist 2.49314
rhand -13.0434 14.0805
rfingers 7.12502
rthumb 13.0514 -15.4912
lclavicle -9.93923e-015 1.66979e-014
lhumerus -33.7793 12.5993 83.7057
lradius 29.1835
lwrist -3.27131
lhand -19.6515 23.0862
lfingers 7.12502
lthumb 6.67623 52.9609
rfemur -11.785 5.18452 21.4166
rtibia 21.1447
rfoot -9.76023 -8.22859
rtoes 2.55744
lfemur -13.276 -2.91066 -21.7771
ltibia 22.5478
lfoot -10.5653 6.89181
ltoes 0.0173366
